# xmcd
#
# Track frame offsets:
#	300
#	14489
#	27439
#	41371
#	56969
#	73038
#	88538
#	103740
#	113867
#	127480
#	137026
#	153517
#	166150
#	182511
#	208046
#	221466
#	252946
#	271037
#
# Disc length: 3843
#
# Revision: 6
# Processed by: cddbd v1.5.1PL0 Copyright (c) Steve Scherf et al.
# Submitted via: EasyCDDAExtractor 7.5.0.1
# Normalized: r5:DSETVAR1
#
DISCID=090eff12
DTITLE=Various Artist - Darker Than Blue - Soul From Jamdown 1973-1980
DYEAR=2001
DGENRE=Soul
TTITLE0=The Boris Gardiner Happening Feat. Leslie Butler - Ghetto Funk
TTITLE1=The Chosen Few - Collie Stuff
TTITLE2=Carl Bradney - Slipping Into Darkness
TTITLE3=Ken Boothe - Is It Because I'm Black?
TTITLE4=Freddie McGregor - Get Involved
TTITLE5=Al Brown - Ain't No Love In The Heart Of The City
TTITLE6=In-Crowd - Mango Walk
TTITLE7=Ken Boothe - Ain't No Sunshine
TTITLE8=Milton Henry - Gypsy Woman
TTITLE9=Junior Murvin - Give Me Your Love
TTITLE10=John Holt - For The Love Of You
TTITLE11=Alton Ellis - It's A Shame
TTITLE12=Jimmy London - I'm Your Puppet
TTITLE13=Delroy Wilson - Get Ready (12 Inch Mix)
TTITLE14=Lloyd Charmers - Darker Than Blue
TTITLE15=Tinga Stewart - Why Can't We Live Together? (Extended)
TTITLE16=The Tamlins - Baltimore
TTITLE17=Welton Irie - Hotter Reggae Music
EXTD=1973 - 1980
EXTT0=
EXTT1=
EXTT2=
EXTT3=
EXTT4=
EXTT5=
EXTT6=
EXTT7=
EXTT8=
EXTT9=
EXTT10=
EXTT11=
EXTT12=
EXTT13=
EXTT14=
EXTT15=
EXTT16=
EXTT17=
PLAYORDER=
